<?xml version="1.0" encoding="utf-8"?>
<!-- Generator: Adobe Illustrator 19.0.0, SVG Export Plug-In . SVG Version: 6.00 Build 0)  -->
<svg version="1.1" id="Layer_1" xmlns="http://www.w3.org/2000/svg" xmlns:xlink="http://www.w3.org/1999/xlink" x="0px" y="0px"
	 viewBox="0 0 711.5 104.5" style="enable-background:new 0 0 711.5 104.5;" xml:space="preserve">
<style type="text/css">
	.st0{fill:#FFFFFF;}
	.st1{fill-rule:evenodd;clip-rule:evenodd;fill:#FFFFFF;}
</style>
<g id="Layer_2">
</g>
<path class="st0" d="M133.1,54.1c-1.2,3.7-2.9,5.6-5.8,5.6H118c-0.1,0-0.1-1-0.1-21.8h13.7v-4.2h-13.7V11.9h7
	c3.3,0.1,4.4,1.1,5.4,4.3l2.8,8.8l4.7-0.9V8.5h-35.1v3.4h5.1v47.8h-5h-0.1h-6.7V11.9h5.1V8.5H80.9v3.4h5v21.9H68.4V11.9h5.1V8.5h-20
	h-0.2H12l-0.6,15.6l4.7,0.9l2.8-9.6c0.9-3.1,1.9-3.6,5.1-3.6h3.5v48h-6.5v3.4h23v-3.4h-6.5v-48h3.5c3.5,0,4,0.4,5,3.6l2.9,9.7
	l4.7-0.9V11.9h4.9v47.8h-5.1v3.4h20.2v-3.4l-5.1-0.1V37.9H86v21.9h-5v3.4h21.8h0.1h36.7l1.2-16.8l-4.6-0.9L133.1,54.1z M129.5,12.1
	c1.6,0,2.6,1.1,3.4,3.6l2.1,6.6l0.2,0.8l-1.2,0.2l-2.4-7.5c-0.5-1.7-1.3-3.4-2.5-3.8H129.5z M13.9,23.2l-1.1-0.2l0.5-12.3l1.1,0.1
	L13.9,23.2z M30.1,59.8h-1.2v-48h1.2V59.8z M49.7,23.4l-2.4-8c-0.5-1.7-1.1-3.4-2.2-3.8H46c1.2,0.2,2,1.9,2.5,3.6l2.4,7.9L49.7,23.4
	z M61,59.8h-1.2V11.9H61V59.8z M88.6,59.8h-1.2V11.9h1.2V59.8z M110.5,59.8h-1.2V11.9h1.2V59.8z M138.1,47.3l-2.9,8.6
	c-0.7,2.1-2.2,3.6-4,3.6h-0.2c1.1-0.4,2.3-2.1,2.9-3.8l3-8.7L138.1,47.3z M256.6,8c-14.9,0-22.6,13.3-22.6,28.6c0,3.4,0.3,6.5,1,9.3
	l-4.3-0.8l-2.8,9c-1.1,3.4-3,5.7-6.3,5.7h-6.4c-0.1,0-0.1-2.2-0.1-47.8h5.1V8.5h-20v3.4h4.9v47.8h-5.5v3.4h34.6l1.2-15.8
	c2.9,10.3,10.2,16.3,21.3,16.3c15,0,22.7-13.2,22.7-28.5C279.3,18.5,271.1,8,256.6,8z M207.7,59.8h-1.2V11.9h1.2V59.8z M229.9,56
	c-0.6,1.9-1.7,3.3-2.8,3.6h-1.4c1.1-0.4,2.4-2.1,3-3.8l2.8-8.9l1.2,0.2L229.9,56z M246.2,59.9c-8-5.4-10.9-14.4-10.9-23.2
	c0-9.6,3.1-18.8,10.9-24.4c0.6-0.3,1.2-0.6,0.9,0l-0.9,0.8c-6.4,5.7-9.5,14.8-9.5,23.6c0,8.8,3.1,17,9.5,22.5l0.9,0.7
	C247.4,60.6,246.8,60.2,246.2,59.9z M244.6,35.9c0-15.8,3.5-23.6,11.9-23.6c7.5,0,12,7.8,12,23.6c0,15.8-3.5,23.6-12,23.6
	C249.2,59.4,244.6,51.7,244.6,35.9z M263,59.6c-1.2,0.5-1.2,0.2-0.3-0.3c5.9-4,7.3-13.3,7.3-22.7c0-9.4-1.6-19.4-7.3-23.7
	c-0.8-0.6-0.8-0.8,0.3-0.3c7.6,3.6,8.3,17.3,8.3,23.8C271.3,44.1,270.6,56,263,59.6z M308.2,35c7.2-2.4,9.7-7.7,9.7-12.4
	c0-8.8-5.8-14-15.9-14h-22.1v3.4h5.4v47.8h-5.4v3.4h23.3c10.5,0,17.3-5.8,17.3-14.3C320.4,41.7,316,36,308.2,35z M304.9,12.1
	c1.2,0.2,2.1,1,2.7,1.6c1.9,2.3,2.9,6,2.9,10c0,2.9-0.6,5.6-1.8,7.6c-0.6,0.9-2.1,2-3.3,2.2h-0.2c2.6-1.5,4-5.6,4-9.8
	c0-5-1.5-9.8-4.4-11.6H304.9z M295.3,11.9h5.1c4.9,0,7.3,5.2,7.3,11.8c0,5.4-2.2,9.8-6.2,9.8h-6.3V11.9z M287.9,59.8h-1.2V11.9h1.2
	V59.8z M301.2,59.8h-5c-0.8,0-0.8-0.9-0.8-1.9V37.1h6.9c5.3,0.3,7.6,5.8,7.6,12.5C309.8,56.6,306.7,59.8,301.2,59.8z M310.4,57.6
	c-0.7,0.9-2.1,1.8-3.4,2h-0.2c2.9-1.5,4.4-5.2,4.4-10c0-5.3-1.9-10.7-5.2-12.4h0.2c1.4,0.2,3,1.3,4,2.7c1.6,2.4,2.4,6,2.4,9.8
	C312.5,53.1,311.8,55.8,310.4,57.6z M181.9,44.7h6v13.9c-2,0.6-3.9,0.6-6.2,0.6c-7.3,0-13.5-6.7-13.5-24c0-13,4.9-22.8,12-22.8
	c5.6,0,7.6,6.9,9.9,15.4l5.4-1V12.4c-4.4-3.1-8.5-4.3-14.2-4.3c-14.6,0-23.9,13.9-23.9,28.6c0,18.5,10,27,23.5,27
	c3.6,0,8.7-1.1,12.2-2.4l4.5-0.4V41.2h-15.8V44.7z M184.6,12.4c1.4,0,3.2,1.4,4.4,3.5c0.9,1.9,1.9,4,3.5,9.9l-1.2,0.2
	c-1.6-5.6-2.5-8.1-3.6-10.3c-0.9-1.9-2.6-3.1-3.1-3.4H184.6z M169.8,59.6c-8-5.5-10.9-14-10.9-22.9c0.2-9.5,3.9-19,11.9-24.2
	c1.1-0.7,1.1-0.2,0.9,0l-1,0.8c-6.6,5.5-10.5,14.6-10.5,23.4c0,8.8,2.9,16.7,9.5,22.1l1,0.8C171.1,60.2,170.4,59.9,169.8,59.6z
	 M189.3,44.7h1.2v13.2l-1.2,0.3V44.7z M351.6,54.1c-1.2,3.7-2.9,5.6-5.8,5.6h-9.3c-0.1,0-0.1-1-0.1-21.8h13.7v-4.2h-13.7V11.9h7
	c3.3,0.1,4.4,1.1,5.4,4.3l2.8,8.8l4.7-0.9V8.5h-35.1v3.4h5.1v47.8h-5.1v3.4H358l1.2-16.8l-4.6-0.9L351.6,54.1z M348,12.1
	c1.6,0,2.6,1.1,3.4,3.6l2.1,6.6l0.2,0.8l-1.2,0.2l-2.4-7.5c-0.5-1.7-1.3-3.4-2.5-3.8H348z M329,59.8h-1.2V11.9h1.2V59.8z
	 M356.6,47.3l-2.9,8.6c-0.7,2.1-2.2,3.6-4,3.6h-0.2c1.2-0.4,2.3-2.1,2.9-3.8l3-8.7L356.6,47.3z M484.6,8.5h-19h-0.2h-16.6v3.4
	c6.7,0,6.8,3.8,6.8,5.9v26.7c-7-11.1-22.5-34.5-23.3-36h-13.7v3.1c2.6,0.2,5,3.1,6.6,5.5V54c0,3.2-0.2,5.4-4,5.9v-0.1h-4L401.5,8.5
	h-8c-2,8.1-13.8,45.5-13.8,45.5c-1.2,3.6-3,5.7-6.5,5.7v3.4h16.1v-3.4c-5.8-0.5-6-2.1-4.9-7.3c0.4-1.8,1.1-4.4,2.3-9h14.5
	c1.6,5.1,3.4,10.5,5,16.2h-4.8v3.4H420h1.2h15.7v-3.4c-7.7-0.1-7.8-3.2-7.8-5.8V23.1l25.8,40.1h4.4c0-2.8,0.2-6.3,0.2-9.8V17.8
	c0-3.7,1.1-5.9,6.2-5.9h4.6v47.8h-5.4v3.4h19.8c15.5,0,24.4-13,24.4-28C509.1,19.6,500.3,8.5,484.6,8.5z M388,39.4l5.8-19.8
	l6.2,19.8H388z M407.8,59.8l-13.3-42.6l0.7-2.3L409,59.8H407.8z M455.2,61.2l-28.9-44.9c-0.7-1.1-2.3-3.3-3.1-4.1l0.1-0.2l1.6,0.2
	c0,0,2.1,2.8,3.2,4.5L455.2,59V61.2z M472.8,59.8h-1.2V11.9h1.2V59.8z M483.4,59.8h-1.2c-1.3,0-1.9-0.9-1.9-2.4V11.9h1
	c4.4,0,6,0.7,7.7,1.7c6.3,3.7,9.4,13.4,9.4,23.2c0,11.3-3,18.1-7.6,21C489.2,58.9,487.6,59.8,483.4,59.8z M496.9,55.3
	c-1.5,2-4,4.1-6.6,4.4H490c8.9-3.6,9.9-15.7,9.9-23.1c0-6.8-1.2-12.7-3.8-17.2c-1.8-3.3-4.3-6-7.6-7.4h0.2c1.6,0.2,3.5,1.3,4.6,2.2
	c5.4,4.4,7.8,12.7,7.8,22.2C501.2,43.3,500.3,50.6,496.9,55.3z M684.1,45l-2.8,9c-1.1,3.4-3,5.7-6.3,5.7h-6.4
	c-0.1,0-0.1-2.2-0.1-47.8h5.1V8.5h-20v3.4h4.9v47.8h-4.9v3.4h33.9l1.3-17.3L684.1,45z M661.2,59.8h-1.2V11.9h1.2V59.8z M683.4,56
	c-0.6,1.9-1.7,3.3-2.8,3.6h-1.4c1.2-0.4,2.4-2.1,3-3.8l2.8-8.9l1.2,0.2L683.4,56z M651.7,59.8h-5V11.9h5V8.5h-20.2v3.4h5.1v47.8
	h-4.9h-0.2h-3.8L612,8.5h-8c-2,8.1-13.8,45.5-13.8,45.5c-1.2,3.6-3,5.7-6.5,5.7h-4.9l-1.5-33.2c-0.3-7.3-0.4-9.2-0.4-10.3
	c0-3.1,0.3-3.7,5.3-4.4V8.5h-15.1c-3,7.9-7.4,21.2-10.9,31.1C549.8,23.6,544,8.5,544,8.5h-16.2v3.4c5.6,1,6.1,0.5,6.1,5.8v0.6
	c-0.5,9.7-1.6,26.7-2.3,36.8c-0.2,2.4-0.9,3.6-6,4.8v3.1h16.6v-3.2c-5.8-1-6.2-3-6.2-4.8c0-1.5,0.6-15.5,1-26.6l0.3-9.2l14.6,36.9
	l2.1-1L566.3,19l2.5,40.7h-5.5v3.4h20.4h0.1h16v-3.4c-5.8-0.5-6-2.1-4.9-7.3c0.4-1.8,1.1-4.4,2.3-9h14.5c1.6,5.1,3.4,10.5,5,16.2
	H612v3.4h19.4h0.2h20V59.8z M551.9,52.3l-14.4-36.5l0.1-3l15,37.8L551.9,52.3z M570.2,59.8l-2.7-44l1.1-3l2.9,47H570.2z M598.5,39.4
	l5.8-19.8l6.2,19.8H598.5z M618.3,59.8L605,17.2l0.7-2.3l13.8,44.9H618.3z M639.2,59.8h-1.2V11.9h1.2V59.8z"/>
<path class="st1" d="M685.7,30.9c0,0-0.7-0.2-0.8,0.6c0,0.3,0.1,0.6,0.4,0.9c0.1,0.1,0.2,0.1,0.3,0.1c1.4,0.1,3-2.3,4-4.1
	c0.5-0.8,0.7-1.1,0.9-1.1c0.1,0,0.5,0,0.9,0.7c0.6,1,3.4,3.8,7,3.1c0.1-0.4-0.5-0.6-0.9-0.9c0,0-1.5-1.2,0.4-1.8
	c1.9-0.4,2.8,0.3,4.5-1.1c0.1-0.4-0.9-0.6-0.9-0.6s-1.1-0.7,2.2-1.7c1.6-0.4,1.6-0.7,1.4-0.9c-0.3-0.2-1.1-0.5,0.1-1.3
	c1.2-0.8,2-1.9,1.9-2.2c-0.2-0.3-0.7-0.2-1.4,0.1c-0.7,0.4-1.6,0.1-2.1-0.6c-0.5-0.8-1-0.6-1.6-0.1c-0.6,0.5-1.9,1.2-2.5,0
	c-0.4-1.4-0.2-1,0.8-2.8c1-1.9,1.2-3.3,1.2-3.6c0-0.3-0.1-0.4-1.1,0c-0.8,0.2-0.9-3.8-0.9-4.3c0,0,0-1.1-0.6-0.1
	c-0.5,0.6-2.5,2.6-3.1,2.8c-0.6,0.2-1.6-0.4-1.4-1.1c0-0.8-0.5-0.5-0.7,0c-0.2,0.5-1.7,5.3-2.1,5.6c-0.4,0.3-0.6,1-1.3-0.2
	c-0.6-1.2-1.8-4.1-2.8-2.7c-0.3-0.3-2.1-2.8-3.6-2.8c-0.2,0.3,0.1,1,0.4,1.2c0.3,0.4,0.3,1.4,0,2.1c-0.3,0.7-0.3,1.6,0.1,2.5
	c0.2,0.4-0.1,1.1-1.3,1.3c-1.2,0.1-1,0.5-0.5,1.1c0.5,0.6,2.3,2.2,2.8,2.8c0.4,0.6-0.1,1.3-0.9,1.4c-0.9,0.1-1.6-0.2-1.8,0.3
	c-0.1,0.5,0.6,0.3,0.9,0.7c0,0,1.6,2.8,3.6,2.7c2.1-0.1,2.2,0.1,1.9,1C688.9,28.3,687.2,30.8,685.7,30.9"/>
</svg>
